<svg height='100' width='100' viewBox="0 0 64000 63999" fill="#F58549"
    xmlns="http://www.w3.org/2000/svg" fill-rule="evenodd">
    <g>
        <path d="M58891 13619l0 20236c0,8131 -3296,15492 -8625,20821 -5328,5329 -12690,8625 -20820,8625 -8131,0 -15493,-3296 -20821,-8625 -5329,-5328 -8625,-12690 -8625,-20821 0,-8131 3296,-15492 8625,-20821 5328,-5329 12690,-8624 20821,-8624 2434,0 4818,303 7115,874 1778,442 3499,1050 5144,1806 425,195 718,521 867,964 149,443 113,879 -107,1292l-1531 2871c-406,760 -1326,1075 -2112,723 -1215,-544 -2492,-987 -3820,-1317 -1760,-437 -3621,-670 -5556,-670 -6325,0 -12051,2563 -16195,6707 -4144,4145 -6708,9871 -6708,16195 0,6324 2564,12051 6708,16195 4144,4144 9870,6707 16195,6707 6324,0 12050,-2563 16194,-6707 4144,-4145 6708,-9871 6708,-16195l0 -20236 -3297 0c-692,0 -1285,-361 -1603,-975 -318,-613 -271,-1305 128,-1871l6569 -9310c348,-495 869,-764 1475,-764 605,0 1126,269 1475,764l6568 9310c399,566 446,1258 128,1871 -318,614 -911,975 -1603,975l-3297 0zm-29421 4086c8981,0 16263,7282 16263,16264 0,8982 -7282,16263 -16263,16263 -8983,0 -16264,-7281 -16264,-16263 0,-8982 7281,-16264 16264,-16264zm-6333 12116c0,-2824 1867,-4978 4514,-5771l0 -2180c0,-425 347,-771 772,-771l2093 0c425,0 772,346 772,771l10 2100c502,127 988,317 1441,569 1654,921 2627,2521 2943,4362 40,230 -20,450 -171,628 -150,177 -356,274 -589,274l-1921 0c-343,0 -638,-220 -738,-548 -750,-2482 -5367,-2729 -5367,315 0,1659 2115,2272 3380,2734 2928,1069 5526,2193 5526,5813 0,2823 -1867,4978 -4514,5771l0 2179c0,425 -347,771 -772,771l-2093 0c-425,0 -772,-346 -772,-771l-10 -2099c-503,-127 -988,-316 -1442,-569 -1654,-921 -2626,-2521 -2942,-4363 -40,-229 20,-449 170,-627 150,-178 357,-275 590,-275l1921 0c343,0 638,220 737,549 750,2482 5367,2728 5367,-315 0,-1757 -2427,-2383 -3751,-2869 -2805,-1032 -5154,-2248 -5154,-5678z"></path>
    </g>
</svg>