<svg height='300px' width='300px'  fill="#000000" xmlns="http://www.w3.org/2000/svg" xmlns:xlink="http://www.w3.org/1999/xlink" version="1.1" x="0px" y="0px" viewBox="0 0 100 100" style="enable-background:new 0 0 100 100;" xml:space="preserve"><path d="M18.1,81.6h20.6c9.3,12.4,27,14.9,39.4,5.6s14.9-27,5.6-39.4c-3.3-4.4-7.9-7.8-13.1-9.6v-6.5c-0.1-1.2-0.5-2.3-1.3-3.2  L48.7,7.9c-0.9-0.8-2-1.3-3.2-1.3H18.1c-4.1,0-7.5,3.4-7.5,7.5v60C10.6,78.3,14,81.6,18.1,81.6z M81.9,64.7  c0,11.4-9.2,20.6-20.6,20.6s-20.6-9.2-20.6-20.6c0-11.4,9.2-20.6,20.6-20.6c0,0,0,0,0,0C72.6,44.1,81.9,53.4,81.9,64.7  C81.9,64.7,81.9,64.7,81.9,64.7z M44.4,14.1l18.8,18.8H44.4V14.1z M36.9,14.1v22.5c0,2.1,1.7,3.8,3.8,3.8l0,0h6.6  c-11.7,6.8-17,21-12.5,33.7H18.1v-60L36.9,14.1z" fill="white"></path><path d="M57.5,55.4v9.7l-3-3c-1.5-1.4-3.9-1.3-5.3,0.2c-1.3,1.4-1.3,3.7,0,5.1l9.4,9.4c1.5,1.5,3.8,1.5,5.3,0l9.4-9.4  c1.3-1.6,1-4-0.6-5.3c-1.4-1.1-3.3-1.1-4.7,0l-3,3.1v-9.8c0-2.1-1.7-3.8-3.8-3.8S57.5,53.3,57.5,55.4z" fill="white"></path></svg>