<svg width="30" height="25" viewBox="0 0 30 25" fill="none" xmlns="http://www.w3.org/2000/svg">
<path fill-rule="evenodd" clip-rule="evenodd" d="M26.8628 7.07966C27.1697 6.15894 27.3233 5.20449 27.3233 4.21595C27.3233 2.89774 27.0332 1.65905 26.4538 0.5C25.2382 0.5 24.1643 0.721792 23.2323 1.16484C22.3007 1.608 21.2382 2.29547 20.0455 3.22723C18.5456 2.86365 16.9543 2.68186 15.2728 2.68186C13.4318 2.68186 11.6761 2.88084 10.0058 3.27851C8.79002 2.32389 7.71617 1.62239 6.78434 1.17343C5.85252 0.724478 4.77306 0.50006 3.54571 0.50006C2.96619 1.65911 2.67645 2.89786 2.67645 4.21601C2.67645 5.21607 2.82977 6.18198 3.13663 7.11363C1.59102 8.92056 0.818359 11.1704 0.818359 13.8636C0.818359 16.2275 1.17048 18.1079 1.87514 19.5058C2.25024 20.2442 2.73872 20.8976 3.34105 21.466C3.94314 22.034 4.63067 22.4945 5.40345 22.8469C6.17634 23.1989 6.95455 23.4917 7.73873 23.7244C8.52286 23.9573 9.38925 24.1279 10.3381 24.2354C11.287 24.3438 12.125 24.4147 12.8522 24.4491C13.5795 24.4827 14.3862 24.5 15.2728 24.5C16.318 24.5 17.2666 24.4742 18.1192 24.4234C18.9716 24.3724 19.9457 24.2471 21.0425 24.0487C22.139 23.8497 23.105 23.5796 23.9404 23.2389C24.7756 22.8981 25.5769 22.4093 26.3439 21.7731C27.1109 21.1365 27.7101 20.381 28.1422 19.5059C28.835 18.0968 29.1817 16.2159 29.1817 13.8637C29.1813 11.1591 28.4086 8.89781 26.8628 7.07966ZM24.8181 19.4799C24.4544 20.2244 23.9941 20.8091 23.4374 21.2357C22.8804 21.6619 22.1874 22.0027 21.3579 22.2587C20.5281 22.5143 19.733 22.6818 18.9716 22.7611C18.2099 22.8407 17.3637 22.8804 16.4316 22.8804H13.5679C12.6362 22.8804 11.7894 22.8407 11.0282 22.7611C10.2669 22.6818 9.47146 22.5143 8.64184 22.2587C7.81253 22.0027 7.11945 21.6619 6.56249 21.2357C6.00554 20.8091 5.54536 20.2244 5.18171 19.4799C4.81813 18.7353 4.63628 17.8634 4.63628 16.8635C4.63628 15.4995 5.02834 14.3403 5.81252 13.3862C6.59664 12.4316 7.65903 11.9544 8.99981 11.9544C9.48865 11.9544 10.5966 12.0736 12.3238 12.3123C13.1306 12.4373 14.0227 12.4998 14.9998 12.4998C15.9773 12.4998 16.8693 12.4375 17.6759 12.3123C19.4262 12.0736 20.5338 11.9544 21 11.9544C22.3407 11.9544 23.4031 12.4318 24.1872 13.3862C24.9714 14.3407 25.3632 15.4995 25.3632 16.8635C25.3632 17.8636 25.1813 18.736 24.8181 19.4799ZM10.7811 14.1703C10.4344 13.7837 10.0227 13.5905 9.54531 13.5905C9.06781 13.5905 8.65599 13.784 8.30942 14.1703C7.96304 14.5564 7.71856 14.9884 7.57659 15.4652C7.43432 15.9429 7.36339 16.4087 7.36339 16.8635C7.36339 17.3178 7.4345 17.7837 7.57659 18.2614C7.71838 18.7384 7.96274 19.1701 8.30942 19.5562C8.65617 19.9428 9.06781 20.1361 9.54531 20.1361C10.0227 20.1361 10.4346 19.9424 10.7811 19.5562C11.1276 19.1701 11.3719 18.7384 11.5139 18.2614C11.656 17.7837 11.7271 17.3178 11.7271 16.8635C11.7271 16.4091 11.6562 15.9429 11.5139 15.4652C11.3719 14.9886 11.1278 14.5568 10.7811 14.1703ZM20.4545 13.5905C20.9317 13.5905 21.3436 13.7837 21.6901 14.1703C22.0364 14.5568 22.281 14.9886 22.4231 15.4652C22.5652 15.9429 22.6362 16.4091 22.6362 16.8635C22.6362 17.3178 22.5652 17.7837 22.4231 18.2614C22.2809 18.7384 22.0364 19.1701 21.6901 19.5562C21.3437 19.9424 20.9317 20.1361 20.4545 20.1361C19.9774 20.1361 19.5653 19.9428 19.2186 19.5562C18.8721 19.1701 18.6278 18.7384 18.486 18.2614C18.3436 17.7837 18.2725 17.3178 18.2725 16.8635C18.2725 16.4087 18.3436 15.9429 18.486 15.4652C18.6278 14.9884 18.8721 14.5564 19.2186 14.1703C19.5653 13.784 19.9774 13.5905 20.4545 13.5905Z" fill="white"/>
</svg>
