<svg width="24" height="25" viewBox="0 0 24 25" fill="none" xmlns="http://www.w3.org/2000/svg">
<path fill-rule="evenodd" clip-rule="evenodd" d="M0.000244141 3.38196C0.000244141 1.79098 1.29123 0.5 2.88221 0.5C4.47219 0.5 5.76317 1.79098 5.76417 3.38196C5.76417 4.97294 4.47319 6.29093 2.88221 6.29093C1.29123 6.29093 0.000244141 4.97294 0.000244141 3.38196ZM23.994 24.4995V24.4985H24V15.6966C24 11.3907 23.073 8.07371 18.039 8.07371C15.6191 8.07371 13.9951 9.40169 13.3321 10.6607H13.2621V8.47571H8.48916V24.4985H13.4591V16.5646C13.4591 14.4756 13.8551 12.4557 16.4421 12.4557C18.991 12.4557 19.029 14.8396 19.029 16.6986V24.4995H23.994ZM0.396191 8.4773H5.37213V24.5001H0.396191V8.4773Z" fill="white"/>
</svg>
