<svg width='130' height='130' viewBox="0 0 100 100" fill="#F2A65A"
    xmlns:i="http://ns.adobe.com/AdobeIllustrator/10.0/"
    xmlns="http://www.w3.org/2000/svg">
    <switch>
        <g>
            <path d="M35.543,87.687c2.183,0,3.997,1.786,3.997,3.997s-1.814,4.025-3.997,4.025H6.687c-2.211,0-3.997-1.814-3.997-4.025V61.353    c0-2.211,1.786-3.997,3.997-3.997h28.857c2.183,0,3.997,1.786,3.997,3.997s-1.814,3.997-3.997,3.997h-24.86v22.337H35.543z"></path>
            <path d="M64.372,87.687c2.211,0,3.997,1.786,3.997,3.997s-1.786,4.025-3.997,4.025H35.543c-2.211,0-4.025-1.814-4.025-4.025    s1.814-3.997,4.025-3.997H64.372z"></path>
            <path d="M39.54,60.304c0,2.211-1.814,3.997-3.997,3.997c-2.211,0-4.025-1.786-4.025-3.997V36.918c0-2.211,1.814-3.997,4.025-3.997    h28.828c2.211,0,3.997,1.786,3.997,3.997s-1.786,3.997-3.997,3.997H39.54V60.304z"></path>
            <path d="M60.375,36.918v-24.52c0-2.211,1.786-3.997,3.997-3.997h21.997v7.994h-18v20.523H60.375z"></path>
            <path d="M97.197,26.175v65.509c0,2.211-1.786,4.025-3.997,4.025H64.372v-8.022h24.831V26.175H97.197z"></path>
            <polygon fill-rule="evenodd" clip-rule="evenodd" points="83.817,4.291 97.31,12.398 83.817,20.506   "></polygon>
        </g>
    </switch>
</svg>