<svg width="29" height="25" viewBox="0 0 29 25" fill="none" xmlns="http://www.w3.org/2000/svg">
<path d="M28.5 3.34123C27.4587 3.82308 26.3492 4.14246 25.1925 4.29754C26.3825 3.548 27.2908 2.37015 27.7178 0.950461C26.6083 1.64831 25.3832 2.14123 24.0777 2.41631C23.0243 1.23292 21.5227 0.5 19.8848 0.5C16.7067 0.5 14.1482 3.22123 14.1482 6.55723C14.1482 7.03723 14.1868 7.49877 14.2812 7.93815C9.509 7.69262 5.28625 5.27969 2.4495 1.604C1.95425 2.51046 1.66375 3.548 1.66375 4.66492C1.66375 6.76215 2.6875 8.62123 4.2135 9.69754C3.29125 9.67908 2.3865 9.39662 1.62 8.95169C1.62 8.97015 1.62 8.99415 1.62 9.01815C1.62 11.9609 3.60975 14.4052 6.219 14.9683C5.75175 15.1031 5.2425 15.1677 4.714 15.1677C4.3465 15.1677 3.9755 15.1455 3.62725 15.0643C4.371 17.4625 6.4815 19.2255 8.991 19.2828C7.038 20.8945 4.55825 21.8655 1.87375 21.8655C1.403 21.8655 0.9515 21.8434 0.5 21.7825C3.04275 23.5123 6.05625 24.5 9.306 24.5C19.869 24.5 25.644 15.2692 25.644 7.268C25.644 7.00031 25.6353 6.74185 25.623 6.48523C26.7622 5.63231 27.7195 4.56708 28.5 3.34123Z" fill="white"/>
</svg>
